<svg width="490" height="539" viewBox="0 0 490 539" fill="none" xmlns="http://www.w3.org/2000/svg">
<path d="M488.3 0.232956C325.14 163.693 163.07 326.073 0.350006 489.103C0.240006 486.853 0.119995 485.443 0.119995 484.043C0.0999951 415.443 0.12 346.853 0 278.253C0 274.103 1.18 271.173 4.14 268.223C89.67 182.973 175.23 97.753 260.36 12.113C269.01 3.41295 277.48 -0.117048 289.76 0.00295219C353.75 0.612952 417.75 0.252956 481.74 0.232956C483.37 0.232956 485 0.232956 488.29 0.232956H488.3Z" fill="url(#paint0_linear_113_234)"/>
<path d="M122.6 386.673C158.98 351.033 195.23 315.513 231.73 279.763C316.7 365.023 402.71 451.323 489.37 538.283C487.12 538.463 485.74 538.673 484.35 538.673C415.69 538.523 347.03 538.393 278.37 538.073C275.88 538.063 272.74 536.853 270.99 535.113C222.32 486.733 173.79 438.213 125.25 389.713C124.45 388.913 123.75 388.013 122.6 386.693V386.673Z" fill="url(#paint1_linear_113_234)"/>
<path d="M70.6052 22.193C70.6052 24.263 70.6052 25.433 70.6052 26.603C70.5852 74.543 70.6052 122.493 70.4252 170.433C70.4252 172.973 69.3453 176.183 67.6152 177.933C46.3252 199.463 24.8253 220.783 3.36525 242.143C2.65525 242.853 1.84526 243.463 0.555255 244.573C0.425255 242.863 0.265247 241.753 0.265247 240.653C0.255247 192.563 0.205253 144.463 0.365253 96.373C0.365253 93.813 1.36525 90.543 3.09525 88.793C24.7452 66.983 46.6052 45.403 68.4352 23.763C68.8352 23.363 69.3552 23.083 70.5952 22.183L70.6052 22.193Z" fill="url(#paint2_linear_113_234)"/>
<defs>
<linearGradient id="paint0_linear_113_234" x1="244.15" y1="0" x2="244.15" y2="489.103" gradientUnits="userSpaceOnUse">
<stop offset="0.543271" stop-color="#7F42EF"/>
<stop offset="1" stop-color="#2C135A"/>
</linearGradient>
<linearGradient id="paint1_linear_113_234" x1="305.985" y1="279.763" x2="305.985" y2="538.673" gradientUnits="userSpaceOnUse">
<stop stop-color="white"/>
<stop offset="1" stop-color="#B5B5B5"/>
</linearGradient>
<linearGradient id="paint2_linear_113_234" x1="35.4276" y1="22.183" x2="35.4276" y2="244.573" gradientUnits="userSpaceOnUse">
<stop stop-color="white"/>
<stop offset="1" stop-color="#B5B5B5"/>
</linearGradient>
</defs>
</svg>
